<svg version="1.2" xmlns="http://www.w3.org/2000/svg" viewBox="0 0 324 297" width="324" height="297">
	<title>Logo_Final_RappiFarma (2)-ai</title>
	<style>
		.s0 { fill: #1c9ccb } 
		.s1 { fill: #e51e27 } 
		.s2 { fill: #231f20 } 
		.s3 { fill: #010203 } 
	</style>
	<g id="Layer 1">
		<path id="&lt;Path&gt;" class="s0" d="m117.6 119.2h-29.6c-16.5 0-29.8-13.4-29.8-29.9 0-16.5 13.3-29.8 29.8-29.8h29.6v-29.6c0-16.5 13.4-29.8 29.8-29.8 16.5 0 29.9 13.3 29.9 29.8v29.6h29.6c16.4 0 29.8 13.3 29.8 29.8 0 16.5-13.4 29.9-29.8 29.9h-29.6"/>
		<g id="&lt;Group&gt;">
			<path id="&lt;Path&gt;" class="s1" d="m147.4 177.3l-5.7-5.2c-20.6-18.9-34.1-31.1-34.1-46.3 0-12.5 9.6-22.1 21.9-22.1 7 0 13.6 3.2 17.9 8.4 4.4-5.2 11-8.4 18-8.4 12.3 0 21.9 9.6 21.9 22.1 0 15.2-13.6 27.4-34.1 46.3z"/>
		</g>
		<g id="&lt;Group&gt;">
			<path id="&lt;Compound Path&gt;" fill-rule="evenodd" class="s2" d="m9 246h-8.9v-36.9h17.5c7.9 0 14 5.4 14 13.2 0 4.8-2.7 9.1-6.6 11.4l9.5 12.3h-10.7l-7.9-10.5h-6.9zm0-29.3v11.4h8c3.4 0 5.5-2.5 5.5-5.7 0-3.4-2.2-5.7-5.5-5.7z"/>
			<path id="&lt;Compound Path&gt;" fill-rule="evenodd" class="s2" d="m37.9 221.8c1.7-0.9 5.8-2.4 10.8-2.4 7.5 0 12.6 3 12.6 10.1v16.5h-8.2l-0.3-3.2c-1.4 2-4.6 3.7-8 3.7-4.6 0-8.2-2.9-8.2-7.7 0-5.8 5-8.1 11.7-8.1 2 0 3.4 0.3 4.5 0.5v-0.6c0-3-2-3.8-5.6-3.8-3.3 0-6.8 1.1-8.4 2zm14.5 14.8v-1.1c-0.7-0.2-1.9-0.4-3.2-0.4-2 0-4.1 0.5-4.1 2.5 0 1.7 1.2 2.5 3 2.5 1.8 0 4.3-1.1 4.3-3.5z"/>
			<path id="&lt;Compound Path&gt;" fill-rule="evenodd" class="s2" d="m66.3 256.8v-36.9h8l0.3 2.8c1.5-1.9 3.9-3.3 7.9-3.3 7.3 0 12.1 5.8 12.1 13.6 0 7.8-4.8 13.5-12.1 13.5-3.3 0-6.1-1-7.7-2.4v12.7zm8.5-23.8c0 3.4 2.3 5.9 5.5 5.9 3.3 0 5.8-2.5 5.8-5.9 0-3.6-2.5-6-5.8-6-3.2 0-5.5 2.5-5.5 6z"/>
			<path id="&lt;Compound Path&gt;" fill-rule="evenodd" class="s2" d="m98.7 256.8v-36.9h8l0.3 2.8c1.5-1.9 3.9-3.3 7.9-3.3 7.3 0 12.1 5.8 12.1 13.6 0 7.8-4.8 13.5-12.1 13.5-3.3 0-6.1-1-7.7-2.4v12.7zm8.5-23.8c0 3.4 2.3 5.9 5.5 5.9 3.3 0 5.8-2.5 5.8-5.9 0-3.6-2.5-6-5.8-6-3.2 0-5.5 2.5-5.5 6z"/>
			<path id="&lt;Compound Path&gt;" class="s2" d="m130.6 211.9c0-2.7 1.9-4.7 4.7-4.7 2.8 0 4.7 1.9 4.7 4.7 0 2.8-1.9 4.7-4.7 4.7-2.7 0-4.7-1.9-4.7-4.7zm9 34.1h-8.5v-26.1h8.5z"/>
			<path id="&lt;Compound Path&gt;" class="s2" d="m154 246h-9v-36.9h26.8v7.6h-17.8v7h14v7.5h-14z"/>
			<path id="&lt;Compound Path&gt;" fill-rule="evenodd" class="s2" d="m172.8 221.8c1.6-0.9 5.7-2.4 10.7-2.4 7.5 0 12.6 3 12.6 10.1v16.5h-8.2l-0.3-3.2c-1.4 2-4.6 3.7-8 3.7-4.6 0-8.2-2.9-8.2-7.7 0-5.8 5-8.1 11.7-8.1 2 0 3.4 0.3 4.5 0.5v-0.6c0-3-1.9-3.8-5.6-3.8-3.3 0-6.8 1.1-8.4 2zm14.5 14.8v-1.1c-0.7-0.2-1.9-0.4-3.1-0.4-2.1 0-4.1 0.5-4.1 2.5 0 1.7 1.1 2.5 2.9 2.5 1.9 0 4.3-1.1 4.3-3.5z"/>
			<path id="&lt;Compound Path&gt;" class="s2" d="m216.2 219.4q1.6 0 3.2 0.5l-0.5 7.5q-1.6-0.6-3.3-0.6c-3.2 0-6 1.8-6 6.6v12.6h-8.5v-26.1h8.1l0.2 3.6c1.2-2.6 3.8-4.1 6.8-4.1z"/>
			<path id="&lt;Compound Path&gt;" class="s2" d="m256.7 231.5c0-2.9-2.1-4.3-4.2-4.3-2.2 0-4.4 1.4-4.4 4.3v14.5h-8.6v-14.5c0-2.9-2.2-4.3-4.2-4.3-2.2 0-4.4 1.4-4.4 4.3v14.5h-8.5v-26.1h7.8l0.3 2.8c1.8-2.4 5-3.3 8-3.3 3.5 0 6.8 1.5 8.2 4.3 2.1-2.9 5.5-4.3 8.8-4.3 5 0 9.8 3.3 9.8 9.7v16.9h-8.6z"/>
			<path id="&lt;Compound Path&gt;" fill-rule="evenodd" class="s2" d="m270.5 221.8c1.6-0.9 5.7-2.4 10.7-2.4 7.5 0 12.6 3 12.6 10.1v16.5h-8.2l-0.3-3.2c-1.4 2-4.6 3.7-8 3.7-4.6 0-8.2-2.9-8.2-7.7 0-5.8 5-8.1 11.7-8.1 2 0 3.4 0.3 4.5 0.5v-0.6c0-3-1.9-3.8-5.6-3.8-3.3 0-6.8 1.1-8.4 2zm14.5 14.8v-1.1c-0.7-0.2-1.9-0.4-3.1-0.4-2.1 0-4.1 0.5-4.1 2.5 0 1.7 1.1 2.5 2.9 2.5 1.9 0 4.3-1.1 4.3-3.5z"/>
		</g>
		<g id="&lt;Group&gt;">
			<path id="&lt;Compound Path&gt;" fill-rule="evenodd" class="s3" d="m297.9 214.1h-3.6v-14.8h7c3.2 0 5.6 2.2 5.6 5.3 0 1.9-1 3.6-2.6 4.5l3.8 4.9h-4.3l-3.1-4.1h-2.8zm0-11.7v4.5h3.2c1.3 0 2.2-1 2.2-2.3 0-1.3-0.9-2.2-2.2-2.2z"/>
			<path id="&lt;Compound Path&gt;" fill-rule="evenodd" class="s3" d="m309.7 214.1v-14.8h6.4c4.7 0 7.5 2.7 7.5 7.4 0 4.7-2.9 7.4-7.5 7.4zm3.6-11.8v8.8h2.5c2.9 0 4.2-1.6 4.2-4.4q0-4.4-4.2-4.4z"/>
		</g>
		<g id="&lt;Group&gt;">
			<path id="&lt;Compound Path&gt;" class="s2" d="m28.8 292h-11.6v-15.8h3.1v13.1h8.5z"/>
			<path id="&lt;Compound Path&gt;" fill-rule="evenodd" class="s2" d="m37.3 290.5c-0.7 1-2.1 1.8-3.6 1.8-2.1 0-3.7-1.3-3.7-3.4 0-2.3 2-3.4 5-3.4 0.9 0 1.7 0.1 2.2 0.3v-0.5c0-1.5-0.9-2.1-2.7-2.1-1.3 0-2.8 0.5-3.6 0.9l-0.3-2.5c0.8-0.5 2.5-1 4.3-1 3.4 0 5.3 1.4 5.3 4.4v7h-2.9zm-0.1-2.5v-0.5c-0.5-0.1-1.1-0.3-1.9-0.3-1.4 0-2.3 0.5-2.3 1.4 0 0.9 0.7 1.4 1.7 1.4 1.2 0 2.4-0.8 2.5-2z"/>
			<path id="&lt;Compound Path&gt;" class="s2" d="m53.4 277l-0.3 2.8c-0.8-0.5-2.9-1-4.6-1-1.7 0-2.9 0.5-2.9 1.8 0 1.3 1.1 1.5 2.2 1.9l2.3 0.6c2.6 0.8 4.1 1.9 4.1 4.3 0 2.8-2.4 4.9-6 4.9-2.3 0-4.8-0.6-5.9-1.2l0.3-2.8c0.7 0.5 3.3 1.2 5.3 1.2 1.7 0 3-0.6 3-1.9 0-1-0.6-1.5-2-1.8l-2.5-0.7c-2-0.5-4.1-1.6-4.1-4.3 0-2.9 2.3-4.8 6-4.8 2.2 0 3.8 0.4 5.1 1z"/>
			<path id="&lt;Compound Path&gt;" fill-rule="evenodd" class="s2" d="m63 290.5c-0.7 1-2 1.8-3.5 1.8-2.2 0-3.8-1.3-3.8-3.4 0-2.3 2-3.4 5-3.4 0.9 0 1.7 0.1 2.2 0.3v-0.5c0-1.5-0.9-2.1-2.6-2.1-1.4 0-2.9 0.5-3.7 0.9l-0.3-2.5c0.9-0.5 2.6-1 4.4-1 3.4 0 5.2 1.4 5.2 4.4v7h-2.8zm-0.2-2.5v-0.5c-0.4-0.1-1.1-0.3-1.9-0.3-1.3 0-2.3 0.5-2.3 1.4 0 0.9 0.7 1.4 1.7 1.4 1.3 0 2.5-0.8 2.5-2z"/>
			<path id="&lt;Compound Path&gt;" class="s2" d="m71.6 292h-3v-16.4h3z"/>
			<path id="&lt;Compound Path&gt;" class="s2" d="m74.3 287.9v-7h3v6.3c0 1.5 1 2.3 2.3 2.3 1.4 0 2.5-0.8 2.5-2.3v-6.3h3v11.1h-2.8l-0.1-1.2c-0.6 0.8-1.8 1.5-3.5 1.5-2.6 0-4.4-1.7-4.4-4.4z"/>
			<path id="&lt;Compound Path&gt;" fill-rule="evenodd" class="s2" d="m87.3 286.4c0-3.4 2.3-5.8 5.4-5.8 1.8 0 3 0.7 3.7 1.6v-6.6h3v16.4h-3v-1.2c-0.8 0.9-2 1.5-3.7 1.5-3.1 0-5.4-2.5-5.4-5.9zm6.1-3.1c-1.8 0-3.1 1.3-3.1 3.1 0 1.8 1.3 3.2 3.1 3.2 1.7 0 3-1.4 3-3.2 0-1.8-1.3-3.1-3-3.1z"/>
			<path id="&lt;Compound Path&gt;" class="s2" d="m105.6 292h-3.1v-15.8h2.8l9.1 10.9v-10.9h3.2v15.8h-2.9l-9.1-10.7z"/>
			<path id="&lt;Compound Path&gt;" fill-rule="evenodd" class="s2" d="m125.8 280.6c3.5 0 6 2.5 6 5.8 0 3.3-2.5 5.9-6 5.9-3.4 0-6-2.6-6-5.9 0-3.3 2.6-5.8 6-5.8zm0 9c1.8 0 3-1.4 3-3.2 0-1.7-1.2-3.1-3-3.1-1.7 0-3 1.4-3 3.1 0 1.8 1.3 3.2 3 3.2z"/>
			<path id="&lt;Compound Path&gt;" fill-rule="evenodd" class="s2" d="m137.2 287.4v4.6h-3.1v-15.8h7.3c3.2 0 5.8 2 5.8 5.6 0 3.4-2.6 5.6-5.8 5.6zm0-8.5v5.8h3.8c1.7 0 2.9-1.2 2.9-2.9 0-1.8-1.2-2.9-2.9-2.9z"/>
			<path id="&lt;Compound Path&gt;" class="s2" d="m149.1 287.9v-7h3v6.3c0 1.5 1 2.3 2.3 2.3 1.3 0 2.5-0.8 2.5-2.3v-6.3h2.9v11.1h-2.8l-0.1-1.2c-0.5 0.8-1.7 1.5-3.4 1.5-2.6 0-4.4-1.7-4.4-4.4z"/>
			<path id="&lt;Compound Path&gt;" fill-rule="evenodd" class="s2" d="m172.8 291.2c-1.1 0.6-2.6 1.1-4.3 1.1-3.9 0-6.5-2.4-6.5-5.9 0-3.4 2.5-5.8 5.8-5.8 3.4 0 6 2.6 5.3 6.7h-8.1c0.3 1.6 1.7 2.3 3.6 2.3 1.3 0 2.6-0.3 3.7-0.8zm-2.3-5.9c-0.1-1.2-1-2.2-2.6-2.2-1.6 0-2.6 0.9-2.8 2.2z"/>
			<path id="&lt;Compound Path&gt;" fill-rule="evenodd" class="s2" d="m174.8 286.4c0-3.4 2.3-5.8 5.4-5.8 1.8 0 3 0.7 3.7 1.6v-6.6h3v16.4h-3v-1.2c-0.8 0.9-2 1.5-3.7 1.5-3.1 0-5.4-2.5-5.4-5.9zm6.1-3.1c-1.8 0-3.1 1.3-3.1 3.1 0 1.8 1.3 3.2 3.1 3.2 1.7 0 3-1.4 3-3.2 0-1.8-1.3-3.1-3-3.1z"/>
			<path id="&lt;Compound Path&gt;" fill-rule="evenodd" class="s2" d="m199.8 291.2c-1.1 0.6-2.6 1.1-4.2 1.1-4 0-6.5-2.4-6.5-5.9 0-3.4 2.4-5.8 5.7-5.8 3.4 0 6.1 2.6 5.3 6.7h-8.1c0.3 1.6 1.7 2.3 3.6 2.3 1.4 0 2.7-0.3 3.8-0.8zm-2.4-5.9c-0.1-1.2-1-2.2-2.5-2.2-1.6 0-2.7 0.9-2.8 2.2z"/>
			<path id="&lt;Compound Path&gt;" class="s2" d="m214.5 292h-11.9v-15.8h11.7v2.7h-8.6v3.7h7.5v2.7h-7.5v4h8.8z"/>
			<path id="&lt;Compound Path&gt;" class="s2" d="m222 285.4c2.3 0.4 3.4 1.4 3.4 3.4 0 2.2-1.9 3.5-4.8 3.5-1.6 0-3.3-0.3-4.3-0.8l0.3-2.5c1.2 0.5 2.7 0.8 3.8 0.8 1.5 0 2.1-0.3 2.1-1 0-0.6-0.5-0.9-1.8-1.1l-1.3-0.2c-2.2-0.4-3.2-1.5-3.2-3.4 0-2.1 1.9-3.5 4.9-3.5 1.4 0 2.7 0.3 3.7 0.7l-0.2 2.5c-0.8-0.4-2.3-0.7-3.4-0.7q-2.2 0-2.2 1c0 0.6 0.5 0.9 1.9 1.1z"/>
			<path id="&lt;Compound Path&gt;" fill-rule="evenodd" class="s2" d="m239.5 286.5c0 3.4-2.2 5.8-5.4 5.8-1.6 0-2.9-0.6-3.6-1.4v5.8h-3v-15.8h2.9v1.3c0.8-0.9 1.9-1.6 3.7-1.6 3.2 0 5.4 2.5 5.4 5.9zm-6 3.1c1.8 0 3-1.4 3-3.1 0-1.8-1.2-3.2-3-3.2-1.8 0-3 1.4-3 3.2 0 1.7 1.2 3.1 3 3.1z"/>
			<path id="&lt;Compound Path&gt;" fill-rule="evenodd" class="s2" d="m251.8 291.2c-1.1 0.6-2.6 1.1-4.2 1.1-3.9 0-6.5-2.4-6.5-5.9 0-3.4 2.4-5.8 5.8-5.8 3.4 0 6 2.6 5.3 6.7h-8.1c0.3 1.6 1.7 2.3 3.5 2.3 1.4 0 2.7-0.3 3.8-0.8zm-2.3-5.9c-0.1-1.2-1.1-2.2-2.6-2.2-1.6 0-2.7 0.9-2.8 2.2z"/>
			<path id="&lt;Compound Path&gt;" class="s2" d="m257.5 282.4c0.5-1.2 1.6-1.8 2.9-1.8 0.6 0 1.2 0.2 1.4 0.3l-0.2 2.6c-0.3-0.1-0.8-0.2-1.4-0.2-1.3 0-2.7 0.7-2.7 3v5.7h-3v-11.1h2.9z"/>
			<path id="&lt;Compound Path&gt;" fill-rule="evenodd" class="s2" d="m270.3 290.5c-0.7 1-2.1 1.8-3.6 1.8-2.1 0-3.7-1.3-3.7-3.4 0-2.3 2-3.4 5-3.4 0.9 0 1.7 0.1 2.2 0.3v-0.5c0-1.5-0.9-2.1-2.7-2.1-1.3 0-2.8 0.5-3.6 0.9l-0.3-2.5c0.8-0.5 2.5-1 4.3-1 3.4 0 5.3 1.4 5.3 4.4v7h-2.9zm-0.1-2.5v-0.5c-0.5-0.1-1.1-0.3-1.9-0.3-1.4 0-2.3 0.5-2.3 1.4 0 0.9 0.7 1.4 1.7 1.4 1.2 0 2.4-0.8 2.5-2z"/>
			<path id="&lt;Compound Path&gt;" class="s2" d="m278.8 282.4c0.6-1.2 1.7-1.8 3-1.8 0.6 0 1.2 0.2 1.4 0.3l-0.2 2.6c-0.3-0.1-0.8-0.2-1.4-0.2-1.3 0-2.7 0.7-2.7 3v5.7h-3v-11.1h2.9z"/>
		</g>
	</g>
</svg>